<svg xmlns="http://www.w3.org/2000/svg" viewBox="0 0 88 88" width="88" height="88">
  <rect width="88" height="88" rx="20" fill="#d4f938"/>
  <g transform="translate(11.17 11.4)" fill="#0c0c0c">
    <path d="m56.83,65.19c-2.36,0-4.58-.92-6.25-2.59-1.67-1.67-2.59-3.89-2.59-6.25s.92-4.58,2.59-6.24c1.67-1.67,3.89-2.59,6.25-2.59s4.58.92,6.25,2.59c3.45,3.45,3.45,9.05,0,12.5-1.67,1.67-3.88,2.58-6.24,2.58Z"/>
    <path d="m8.84,18.08c-2.36,0-4.58-.92-6.25-2.59-1.67-1.67-2.59-3.89-2.59-6.25S.92,4.66,2.58,3C4.26,1.33,6.48.41,8.84.41s4.58.92,6.24,2.59c1.67,1.67,2.59,3.89,2.59,6.25s-.92,4.58-2.59,6.25c-1.67,1.67-3.88,2.59-6.24,2.59Z"/>
    <path d="m56.44,17.82c-2.36,0-4.58-.92-6.25-2.59-3.44-3.44-3.45-9.05,0-12.49,1.67-1.67,3.89-2.59,6.25-2.59s4.58.92,6.25,2.59c3.44,3.44,3.44,9.05,0,12.5-1.67,1.66-3.89,2.58-6.24,2.58Z"/>
    <path d="m9.07,65.19c-2.36,0-4.58-.92-6.25-2.59-1.67-1.67-2.59-3.89-2.59-6.25,0-2.36.92-4.58,2.59-6.25.35-.35.74-.67,1.24-1.01.15-.11.29-.19.43-.28.33-.19.65-.36.96-.5.17-.07.34-.15.51-.22.32-.12.67-.22,1.08-.32.08-.02.15-.04.22-.06.05-.01.09-.03.14-.04l1.97-.13c.25.01.52.04.8.08l.11.02c.07,0,.16.02.25.02h.08s.09.02.09.02h.08c.14,0,.29,0,.43,0,3.39,0,6.74-1.44,9.18-3.96,2.43-2.5,3.78-5.87,3.68-9.25v-.1s-.02-.1-.02-.1c-.02-.09-.02-.19-.03-.28,0-.11-.02-.23-.03-.34l-.02-.2c-.02-.17-.04-.34-.05-.51l.15-1.97s.03-.09.04-.14l.04-.12c.09-.37.19-.75.33-1.11.07-.21.14-.36.22-.51.16-.34.32-.66.51-.98.08-.14.16-.28.26-.42.36-.52.68-.92,1.02-1.26,1.67-1.67,3.89-2.59,6.25-2.59s4.58.92,6.25,2.58c3.44,3.44,3.44,9.05,0,12.5-.35.35-.74.67-1.25,1.01-.15.1-.29.18-.43.27-.32.19-.64.36-.96.51-.17.08-.35.16-.51.22-.34.13-.7.23-1.07.32l-.21.06s-.09.03-.14.04l-1.99.14c-.23,0-.48-.04-.74-.07l-.18-.02c-.06,0-.15-.02-.25-.02h-.07s-.1-.03-.1-.03h-.08c-.15,0-.29,0-.43,0-3.39,0-6.74,1.44-9.18,3.96-2.44,2.51-3.78,5.88-3.68,9.25v.1s.02.1.02.1c.02.1.02.19.03.29,0,.11.02.23.03.34,0,.07.02.19.03.31.01.14.03.27.03.4v.05l-.14,1.89s-.07.26-.09.33c-.1.41-.2.77-.32,1.09-.07.18-.13.34-.21.5-.15.34-.32.66-.51.98-.08.13-.18.29-.28.44-.33.48-.65.88-1,1.23-1.66,1.67-3.88,2.59-6.24,2.59h0Z"/>
    <path d="m32.93,65.19c-2.36,0-4.58-.92-6.25-2.59-1.67-1.67-2.59-3.89-2.59-6.25,0-2.36.92-4.58,2.58-6.24.34-.34.73-.66,1.26-1.02.13-.09.27-.18.42-.26.32-.19.64-.36.96-.51.17-.08.34-.16.51-.22.33-.12.69-.23,1.06-.31,0,0,.31-.09.35-.1l2-.15c.24.01.49.05.76.08l.15.02c.1,0,.18.02.26.02.03,0,.07,0,.1,0h.06s.08.02.08.02c.15,0,.29,0,.44,0,3.38,0,6.72-1.44,9.16-3.96,2.43-2.5,3.78-5.88,3.68-9.25v-.41s-.05-.05-.05-.05c0-.01,0-.03,0-.05,0-.1-.01-.19-.02-.29l-.03-.28c-.02-.16-.04-.31-.04-.47l.14-1.91s.08-.28.1-.35c.11-.46.21-.79.32-1.09.06-.18.14-.34.22-.51.14-.31.31-.62.51-.97l.04-.06c.07-.12.13-.23.21-.34.36-.53.68-.92,1.02-1.26,1.67-1.67,3.89-2.59,6.25-2.59s4.58.92,6.25,2.59c3.44,3.44,3.44,9.05,0,12.5-.33.33-.73.65-1.25,1.01-.1.07-.2.13-.29.18l-.15.1c-.3.18-.62.34-.93.49-.18.08-.34.16-.52.22-.31.12-.65.22-1.08.32-.09.02-.16.04-.22.06-.05.01-.09.03-.14.04l-1.96.14c-.29-.01-.6-.05-.9-.09-.1-.01-.18-.02-.26-.02-.03,0-.06,0-.09,0l-.17-.02c-.15,0-.29,0-.44,0-3.39,0-6.73,1.44-9.17,3.96-2.43,2.51-3.77,5.88-3.67,9.25v.1s.02.1.02.1c.02.1.02.2.03.3,0,.1.01.21.03.31,0,.08.02.19.03.29.02.15.04.3.04.45l-.15,1.94s-.09.3-.09.3c-.09.41-.2.77-.32,1.11-.06.16-.13.31-.2.47l-.02.06c-.15.32-.31.63-.49.93-.09.15-.18.3-.27.44-.35.5-.67.9-1.02,1.25-1.66,1.66-3.87,2.58-6.23,2.58h0Z"/>
    <path d="m9.07,41.33c-2.36,0-4.58-.92-6.25-2.59-1.67-1.67-2.59-3.89-2.59-6.25,0-2.36.92-4.57,2.58-6.24.34-.34.74-.67,1.25-1.02.13-.09.28-.18.43-.27.31-.18.62-.35.95-.5.17-.08.34-.15.52-.22.32-.12.68-.22,1.06-.31l.22-.06s.08-.03.12-.04l2-.14c.26.01.54.05.83.09h.06c.1.02.18.02.26.03.03,0,.06,0,.09,0l.09.02h.08c.15,0,.29,0,.44,0,3.38,0,6.72-1.44,9.16-3.96,2.43-2.51,3.77-5.88,3.68-9.25v-.1s-.02-.1-.02-.1c-.02-.11-.02-.21-.03-.32,0-.09-.01-.18-.02-.27l-.03-.27c-.02-.16-.04-.33-.05-.49l.13-1.86v-.04s.01-.04.01-.04c.01-.04.08-.29.08-.29.11-.47.21-.82.32-1.12.06-.17.14-.33.22-.51.14-.32.31-.64.51-.97l.03-.05c.08-.13.15-.25.24-.38.35-.51.67-.9,1.01-1.24,1.67-1.67,3.89-2.59,6.25-2.59s4.58.92,6.25,2.59c3.44,3.44,3.44,9.05,0,12.5-.34.34-.75.67-1.24,1.01-.14.1-.25.16-.37.24l-.07.04c-.32.19-.64.36-.94.5-.18.08-.35.16-.51.22-.33.12-.68.23-1.08.32-.08.02-.16.04-.23.06-.05.01-.09.03-.14.04l-1.96.14c-.25-.01-.51-.05-.79-.08l-.12-.02c-.09-.01-.17-.02-.25-.02-.03,0-.07,0-.1,0h-.07s-.09-.01-.09-.01c-.15,0-.29,0-.44,0-3.38,0-6.72,1.44-9.17,3.95-2.43,2.51-3.78,5.88-3.68,9.25v.1s.02.1.02.1c.02.1.02.2.03.3,0,.1.01.21.03.31,0,.08.02.19.03.29.02.15.04.29.04.44l-.14,1.93s-.03.1-.04.15l-.05.17c-.1.43-.2.79-.32,1.11-.06.17-.14.34-.22.52-.14.32-.31.63-.5.95-.09.15-.18.3-.27.43-.36.53-.67.91-1.02,1.25-1.67,1.67-3.88,2.58-6.24,2.58h0Z"/>
  </g>
</svg>
